<svg xmlns="http://www.w3.org/2000/svg" width="169" height="38" viewBox="0 0 169 38" role="img" aria-label="所属メンバー">
  <path fill="#111111" d="M14.781,31.125 C16.875,29.385 18.302,27.26 19.063,24.75 C19.667,22.75 19.969,19.99 19.969,16.469 L19.969,12.563 C19.969,10.698 19.891,8.964 19.734,7.359 C20.922,7.557 21.938,7.813 22.781,8.125 C25.073,7.594 27.141,6.833 28.984,5.844 C29.526,5.594 30.094,5.224 30.688,4.734 C31.448,5.359 32.151,6.115 32.797,7 C32.974,7.198 33.063,7.411 33.063,7.641 C33.063,7.839 32.891,7.958 32.547,8 C32.307,8.021 31.901,8.146 31.328,8.375 C28.411,9.573 25.693,10.458 23.172,11.031 L23.172,14.969 L29.016,14.969 L33.406,14.906 C33.573,14.906 33.672,14.927 33.703,14.969 C33.734,15.01 33.75,15.104 33.75,15.25 L33.75,17.625 C33.75,17.792 33.729,17.891 33.688,17.922 C33.646,17.953 33.552,17.969 33.406,17.969 C33.365,17.969 33.214,17.964 32.953,17.953 C32.057,17.932 31.068,17.917 29.984,17.906 L29.984,29.516 L30.047,33.516 C30.047,33.734 29.938,33.844 29.719,33.844 L27.094,33.844 C26.885,33.844 26.781,33.734 26.781,33.516 L26.813,29.516 L26.813,17.906 L23.172,17.906 C23.109,21.417 22.734,24.245 22.047,26.391 C21.276,28.797 19.964,30.958 18.109,32.875 C17.797,33.219 17.573,33.391 17.438,33.391 C17.313,33.391 17.099,33.208 16.797,32.844 C16.203,32.156 15.531,31.583 14.781,31.125 Z M7.266,32.859 C7.036,33.286 6.854,33.5 6.719,33.5 C6.604,33.5 6.391,33.328 6.078,32.984 C5.432,32.245 4.74,31.677 4,31.281 C5.125,29.667 5.875,27.563 6.25,24.969 C6.5,23.229 6.625,20.813 6.625,17.719 L6.563,12.391 C6.562,12.214 6.583,12.109 6.625,12.078 C6.667,12.047 6.76,12.031 6.906,12.031 L10.141,12.094 L14.141,12.094 L17.344,12.031 C17.51,12.031 17.615,12.052 17.656,12.094 C17.688,12.135 17.703,12.234 17.703,12.391 L17.641,15.359 L17.641,20.25 L17.703,23.156 C17.703,23.344 17.677,23.458 17.625,23.5 C17.594,23.531 17.5,23.547 17.344,23.547 L14.875,23.547 C14.708,23.547 14.609,23.521 14.578,23.469 C14.547,23.427 14.531,23.323 14.531,23.156 L14.531,22.297 L9.734,22.297 C9.505,26.589 8.682,30.109 7.266,32.859 Z M14.531,14.938 L9.828,14.938 L9.828,19.453 L14.531,19.453 Z M18.234,6.172 C18.401,6.172 18.5,6.193 18.531,6.234 C18.563,6.276 18.578,6.375 18.578,6.531 L18.578,8.859 C18.578,9.036 18.557,9.146 18.516,9.188 C18.474,9.219 18.38,9.234 18.234,9.234 L14.516,9.172 L9.141,9.172 L5.438,9.234 C5.26,9.234 5.156,9.208 5.125,9.156 C5.094,9.115 5.078,9.016 5.078,8.859 L5.078,6.531 C5.078,6.354 5.099,6.25 5.141,6.219 C5.182,6.188 5.281,6.172 5.438,6.172 L9.141,6.234 L14.516,6.234 Z M48.906,32.281 C48.708,32.281 48.557,32.12 48.453,31.797 C48.255,31.13 48.068,30.313 47.891,29.344 C48.203,29.354 48.531,29.359 48.875,29.359 C49.396,29.359 50.177,29.323 51.219,29.25 L52.625,29.156 L52.625,26.813 L46.766,26.813 L46.766,31.078 L46.828,33.594 C46.828,33.76 46.807,33.865 46.766,33.906 C46.724,33.938 46.625,33.953 46.469,33.953 L44.047,33.953 C43.859,33.953 43.745,33.932 43.703,33.891 C43.672,33.849 43.656,33.75 43.656,33.594 L43.719,30.938 L43.719,27.453 L43.656,24.734 C43.656,24.578 43.682,24.484 43.734,24.453 C43.776,24.422 43.88,24.406 44.047,24.406 L48.531,24.469 L52.625,24.469 L52.625,22.969 L50.281,22.969 L46.063,23.031 C45.885,23.031 45.781,23.01 45.75,22.969 C45.719,22.927 45.703,22.833 45.703,22.688 L45.766,21 L45.766,19.391 L45.703,17.734 C45.703,17.547 45.724,17.432 45.766,17.391 C45.807,17.359 45.906,17.344 46.063,17.344 L50.281,17.406 L52.625,17.406 L52.625,16 C50.792,16.104 48.688,16.177 46.313,16.219 C45.969,16.219 45.76,16.198 45.688,16.156 C45.604,16.094 45.526,15.932 45.453,15.672 C45.234,14.922 44.953,14.307 44.609,13.828 L45.984,13.828 C51.526,13.828 55.927,13.594 59.188,13.125 C59.927,13.01 60.552,12.849 61.063,12.641 C61.729,13.172 62.354,13.74 62.938,14.344 C63.125,14.531 63.219,14.714 63.219,14.891 C63.219,15.078 63.047,15.172 62.703,15.172 C62.505,15.161 62.339,15.156 62.203,15.156 C61.953,15.156 61.703,15.172 61.453,15.203 C59.984,15.432 58.063,15.635 55.688,15.813 L55.688,17.406 L58.516,17.406 L62.719,17.344 C62.896,17.344 63,17.37 63.031,17.422 C63.063,17.464 63.078,17.568 63.078,17.734 L63.016,19.391 L63.016,21 L63.078,22.688 C63.078,22.844 63.06,22.94 63.023,22.977 C62.987,23.013 62.885,23.031 62.719,23.031 L58.516,22.969 L55.688,22.969 L55.688,24.469 L60.422,24.469 L64.906,24.406 C65.146,24.406 65.266,24.516 65.266,24.734 L65.203,27.578 L65.203,28.547 L65.266,31 C65.266,31.896 65.01,32.557 64.5,32.984 C63.937,33.453 62.828,33.688 61.172,33.688 C60.766,33.688 60.526,33.635 60.453,33.531 C60.38,33.438 60.307,33.151 60.234,32.672 C60.193,32.432 60.109,32.12 59.984,31.734 L59.406,31.875 C59.198,31.917 59.078,31.938 59.047,31.938 C58.974,31.938 58.922,31.849 58.891,31.672 L58.609,30.625 C55.891,31.115 53.156,31.516 50.406,31.828 C49.885,31.901 49.536,31.99 49.359,32.094 C49.141,32.219 48.99,32.281 48.906,32.281 Z M57.578,27.672 C57.536,27.578 57.516,27.505 57.516,27.453 C57.516,27.339 57.646,27.255 57.906,27.203 L59.156,26.875 C59.219,26.854 59.292,26.844 59.375,26.844 C59.49,26.844 59.594,26.927 59.688,27.094 C60.292,28.292 60.771,29.583 61.125,30.969 L61.547,30.969 C61.953,30.969 62.156,30.682 62.156,30.109 L62.156,26.813 L55.656,26.813 L55.656,28.828 L57.906,28.547 Z M60.047,21.094 L60.047,19.328 L55.688,19.328 L55.688,21.094 Z M48.688,21.094 L52.625,21.094 L52.625,19.328 L48.688,19.328 Z M36.813,30.984 C38.167,29.109 39.094,26.594 39.594,23.438 C40.021,20.708 40.234,17.208 40.234,12.938 L40.172,5.891 C40.172,5.714 40.198,5.609 40.25,5.578 C40.292,5.547 40.396,5.531 40.563,5.531 L44.938,5.594 L60.141,5.594 L64.516,5.531 C64.703,5.531 64.818,5.552 64.859,5.594 C64.891,5.635 64.906,5.734 64.906,5.891 L64.844,7.969 L64.844,10.047 L64.906,12.094 C64.906,12.281 64.88,12.396 64.828,12.438 C64.786,12.469 64.682,12.484 64.516,12.484 L60.141,12.422 L43.469,12.422 L43.469,13.891 C43.469,17.766 43.234,21.266 42.766,24.391 C42.214,27.755 41.276,30.536 39.953,32.734 C39.703,33.141 39.531,33.344 39.438,33.344 C39.354,33.344 39.172,33.172 38.891,32.828 C38.151,31.953 37.458,31.339 36.813,30.984 Z M61.547,9.953 L61.547,8.156 L43.469,8.156 L43.469,9.953 Z M79.906,20.25 C77.781,18.094 75.339,16.016 72.578,14.016 L74.984,11.813 C77.557,13.76 79.714,15.531 81.453,17.125 C82.776,14.115 83.776,10.646 84.453,6.719 L88.109,7.484 C87.078,12.193 85.734,16.255 84.078,19.672 C86.214,21.922 88.12,24.281 89.797,26.75 L86.828,29.188 C85.495,26.99 83.99,24.885 82.313,22.875 C79.635,27.135 76.188,30.474 71.969,32.891 L69.672,30.531 C73.943,28.24 77.354,24.813 79.906,20.25 Z M96.578,8.156 C99.536,9.677 102.214,11.365 104.609,13.219 L102.281,16.422 C99.875,14.234 97.26,12.396 94.438,10.906 Z M112.063,9.531 L115.422,11.266 C114.474,17.172 112.484,21.849 109.453,25.297 C106.359,28.828 102.026,31.307 96.453,32.734 L94.719,29.469 C100.625,28.167 105.005,25.531 107.859,21.563 C110.037,18.51 111.438,14.5 112.063,9.531 Z M136.547,5.125 L138.656,4.703 C139.396,6.172 140.057,7.995 140.641,10.172 L138.469,10.688 C137.99,8.615 137.349,6.76 136.547,5.125 Z M118.656,30.406 C122.292,24.76 124.406,17.271 125,7.938 L128.766,8.422 C128.193,14.089 127.302,18.885 126.094,22.813 C125.052,26.198 123.672,29.302 121.953,32.125 Z M140.359,4.453 L142.438,4 C143.156,5.479 143.807,7.219 144.391,9.219 L142.203,9.797 C141.703,7.797 141.089,6.016 140.359,4.453 Z M132.609,8.344 L136.281,7.938 C137.219,17.208 139.385,24.641 142.781,30.234 L139.328,32.156 C137.412,28.438 135.896,24.427 134.781,20.125 C133.896,16.74 133.172,12.813 132.609,8.344 Z M146.875,17.375 L164.984,17.375 L164.984,20.859 L146.875,20.859 Z"/>
</svg>