<!-- Generator: Adobe Illustrator 25.2.1, SVG Export Plug-In  -->
<svg version="1.1" xmlns="http://www.w3.org/2000/svg" xmlns:xlink="http://www.w3.org/1999/xlink" x="0px" y="0px" width="102.5px"
	 height="19.8px" viewBox="0 0 102.5 19.8" style="overflow:visible;enable-background:new 0 0 102.5 19.8;" xml:space="preserve">
<style type="text/css">
	.st0{fill:#111111;}
</style>
<defs>
</defs>
<g>
	<path class="st0" d="M6.1,13.5c-0.5,1.5-0.9,3.1-1.4,4.8c-0.2,0.9-1.1,1.2-2,1.2c-1.3,0-2.7-0.7-2.7-1.8c0-0.2,0-0.4,0.1-0.6
		l7-15.3c0.5-1,1.4-1.5,2.4-1.5s2,0.5,2.4,1.5l7,15.3c0.1,0.2,0.1,0.4,0.1,0.6c0,1.1-1.4,1.8-2.7,1.8c-0.9,0-1.8-0.3-2-1.2
		c-0.5-1.7-1-3.3-1.4-4.8H6.1z M11.9,10.3c-0.8-2.2-1.6-4.2-2.4-6c-0.8,1.8-1.6,3.7-2.4,6H11.9z"/>
	<path class="st0" d="M25.5,19.3c-1.7,0-2.6-0.9-2.6-2.6V2.9c0-1.6,0.9-2.3,2.6-2.3h6.1c4.6,0,7,1.5,7,4.5c0,1.3-0.5,2.5-2,3.1
		c1.7,0.7,2.9,2.5,2.9,4.8c0,4.2-2.3,6.3-7.4,6.3H25.5z M26.5,3.8C26.4,3.8,26.4,3.8,26.5,3.8L26.4,7h5.7c2,0,3-0.5,3-1.7
		c0-1.1-1.1-1.6-3.3-1.6H26.5z M26.4,10.2v4.2c0,0.3,0.2,0.4,0.4,0.4H32c2.8,0,3.8-0.8,3.8-2.4s-1.2-2.2-3.8-2.2H26.4z"/>
	<path class="st0" d="M43.6,9.9c0-5.8,4.2-9.9,9.6-9.9c5.4,0,9.6,4.2,9.6,9.9c0,5.8-4.2,9.9-9.6,9.9C47.8,19.8,43.6,15.7,43.6,9.9z
		 M53.2,3.3c-3.4,0-5.9,2.7-5.9,6s2.5,5.8,5.9,5.8s5.9-2.5,5.9-5.8S56.6,3.3,53.2,3.3z"/>
	<path class="st0" d="M79.5,1.4c0-0.8,0.9-1.2,1.8-1.2c0.9,0,1.7,0.4,1.7,1.2V13c0,4.4-2.7,6.7-7.3,6.7c-4.8,0-7.6-2.1-7.6-6.7V1.4
		c0-0.8,0.9-1.2,1.8-1.2c0.9,0,1.7,0.4,1.7,1.2v10.4c0,2.2,2,3.3,4,3.3c2,0,4-1.1,4-3.3V1.4z"/>
	<path class="st0" d="M97.5,17.7c0,1.2-1.3,1.8-2.6,1.8c-1.3,0-2.6-0.6-2.6-1.8v-0.2C92.9,11,93,8.3,93.1,3.8h-4.6
		c-0.9,0-1.3-0.8-1.3-1.6c0-0.8,0.4-1.6,1.3-1.6h12.6c0.9,0,1.3,0.8,1.3,1.6c0,0.8-0.5,1.6-1.3,1.6h-4.5c0,4.4,0.2,7.2,0.9,13.7
		V17.7z"/>
</g>
</svg>
