<!-- Generator: Adobe Illustrator 25.2.1, SVG Export Plug-In  -->
<svg version="1.1" xmlns="http://www.w3.org/2000/svg" xmlns:xlink="http://www.w3.org/1999/xlink" x="0px" y="0px" width="82.4px"
	 height="19.8px" viewBox="0 0 82.4 19.8" style="overflow:visible;enable-background:new 0 0 82.4 19.8;" xml:space="preserve">
<style type="text/css">
	.st0{fill:#111111;}
</style>
<defs>
</defs>
<g>
	<path class="st0" d="M15.9,17.4c0,1.5-1.4,2.1-2.7,2.1c-1.1,0-2.1-0.3-2.6-1.1C7.9,14.4,5.1,9,3.7,5.8c0,0,0.4,7.1,0.8,11.6
		c0,0.1,0,0.2,0,0.3c0,1.2-1.1,1.9-2.3,1.9S0,18.9,0,17.5v-0.1c0.3-5.4,0.3-8.9,0.3-15c0-1.4,1.2-2.1,2.4-2.1c0.8,0,1.5,0.3,1.9,1
		c2.6,4.6,5.1,8.1,7.6,11.2V1.5c0-0.8,0.9-1.2,1.8-1.2s1.7,0.4,1.7,1.2C15.7,7.7,15.7,11.2,15.9,17.4L15.9,17.4z"/>
	<path class="st0" d="M24.6,19.3c-1.7,0-2.6-0.9-2.6-2.6V2.9c0-1.6,0.9-2.4,2.6-2.4h10.2c1.1,0,1.6,0.8,1.6,1.6
		c0,0.8-0.5,1.6-1.6,1.6h-9.2c-0.1,0-0.1,0.1-0.1,0.1v3.3h8.6c1,0,1.6,0.8,1.6,1.6c0,0.8-0.5,1.6-1.5,1.6h-8.6v3.9
		c0,0.3,0.1,0.4,0.4,0.4h9c1,0,1.6,1.1,1.6,2.3c0,1.1-0.5,2.3-1.6,2.3H24.6z"/>
	<path class="st0" d="M51.5,6l-2.3,11.6c-0.3,1.3-1.4,1.9-2.6,1.9c-1.3,0-2.6-0.6-3-1.9C42.1,11.3,41.1,7.1,40.1,2
		c0-0.1,0-0.2,0-0.3c0-0.9,0.9-1.4,1.8-1.4c0.7,0,1.4,0.3,1.6,1c1.1,4.3,1.8,7.4,3,11l2.6-9.9c0.3-1,1.3-1.4,2.3-1.4
		s2.1,0.5,2.4,1.4l2.8,9.9c1.1-3.2,2-6.6,3-11c0.2-0.7,0.8-1,1.6-1c0.9,0,1.8,0.5,1.8,1.4c0,0.1,0,0.2,0,0.3c-1.2,6-2,9.4-3.6,15.7
		c-0.3,1.2-1.7,1.9-3,1.9c-1.2,0-2.3-0.5-2.6-1.9L51.5,6z"/>
	<path class="st0" d="M74.5,19.8c-5.4,0-8.1-2.8-8.1-7.3c0-1.2,0.9-1.7,1.7-1.7c0.7,0,1.4,0.4,1.6,1.2c0.4,2.1,2.2,3.2,4.8,3.2
		c1.9,0,2.9-0.5,3.5-1.1c0.3-0.3,0.4-0.8,0.4-1.2c0-0.4-0.1-0.7-0.3-0.9c-0.4-0.6-0.9-1-2.2-1.3c-1.8-0.4-4.2-0.6-6-1.3
		c-2-0.8-2.9-2.5-2.9-4.1c0-1.3,0.5-2.5,1.5-3.4c1.2-1.1,3-1.8,5.6-1.8c4.1,0,6.8,1.6,7.3,4.8c0,0.1,0,0.1,0,0.2
		c0,0.8-1,1.4-1.9,1.4c-0.7,0-1.3-0.3-1.5-1.1c-0.3-1.4-1.8-2.2-3.8-2.2c-1.7,0-2.7,0.4-3.2,0.9c-0.3,0.3-0.5,0.7-0.5,1
		c0,0.4,0.3,0.8,1,1.2C72.6,6.7,75,7,77,7.4c2.3,0.5,3.7,1.3,4.6,2.6c0.6,0.9,0.9,2.1,0.9,3.4c0,1.4-0.4,2.9-1.2,4
		C80,18.9,77.7,19.8,74.5,19.8z"/>
</g>
</svg>
