<!-- Generator: Adobe Illustrator 25.2.1, SVG Export Plug-In  -->
<svg version="1.1" xmlns="http://www.w3.org/2000/svg" xmlns:xlink="http://www.w3.org/1999/xlink" x="0px" y="0px" width="58.3px"
	 height="11.5px" viewBox="0 0 58.3 11.5" style="overflow:visible;enable-background:new 0 0 58.3 11.5;" xml:space="preserve">
<defs>
</defs>
<g>
	<path d="M4.7,11.5C1.6,11.5,0,9.9,0,7.3c0-0.7,0.5-1,1-1c0.4,0,0.8,0.2,0.9,0.7c0.2,1.2,1.3,1.9,2.8,1.9c1.1,0,1.7-0.3,2.1-0.6
		C7,8,7,7.7,7,7.5C7,7.3,7,7.1,6.9,7C6.6,6.6,6.4,6.4,5.6,6.2C4.6,6,3.2,5.8,2.1,5.4C1,5,0.4,4,0.4,3c0-0.7,0.3-1.5,0.9-2
		C2,0.4,3.1,0,4.6,0C7,0,8.5,0.9,8.8,2.8c0,0,0,0.1,0,0.1c0,0.5-0.6,0.8-1.1,0.8c-0.4,0-0.8-0.2-0.9-0.6C6.7,2.3,5.8,1.8,4.6,1.8
		c-1,0-1.6,0.2-1.9,0.5C2.5,2.5,2.4,2.8,2.4,3c0,0.2,0.2,0.5,0.6,0.7C3.6,3.9,5,4.1,6.1,4.3c1.3,0.3,2.2,0.8,2.7,1.5
		c0.3,0.5,0.5,1.2,0.5,2c0,0.8-0.2,1.7-0.7,2.3C7.9,11,6.6,11.5,4.7,11.5z"/>
	<path d="M21.8,10.3c0,0.7-0.7,1.1-1.5,1.1c-0.7,0-1.5-0.3-1.5-1.1v-0.1c0.1-1.7,0.3-3,0.3-4.2h-4.6c0,1.2,0.2,2.5,0.3,4.2v0.1
		c0,0.7-0.7,1-1.5,1c-0.7,0-1.5-0.3-1.5-1v-0.1c0.4-4.1,0.5-6.2,0.5-9.4c0-0.5,0.5-0.7,1-0.7c0.5,0,1,0.2,1,0.7v1.7
		c0,0.5,0,1.1,0,1.6h4.7c0-0.6,0-1.2,0-1.9V0.8c0-0.5,0.5-0.7,1-0.7c0.5,0,1,0.2,1,0.7C21.3,4.2,21.5,6.1,21.8,10.3L21.8,10.3z"/>
	<path d="M27.5,7.9c-0.3,0.9-0.5,1.8-0.8,2.8c-0.1,0.5-0.6,0.7-1.1,0.7c-0.8,0-1.6-0.4-1.6-1c0-0.1,0-0.2,0.1-0.4l4.1-9
		c0.3-0.6,0.8-0.9,1.4-0.9c0.6,0,1.2,0.3,1.4,0.9l4.1,9c0.1,0.1,0.1,0.3,0.1,0.4c0,0.6-0.8,1-1.6,1c-0.5,0-1-0.2-1.2-0.7
		c-0.3-1-0.6-1.9-0.8-2.8H27.5z M30.9,6c-0.5-1.3-0.9-2.5-1.4-3.5c-0.5,1-0.9,2.2-1.4,3.5H30.9z"/>
	<path d="M39.8,6.6c0.1,1.1,0.1,2.1,0.3,3.6c0,0.1,0,0.1,0,0.2c0,0.6-0.8,1-1.5,1c-0.7,0-1.3-0.3-1.3-0.9v0c0.1-2.9,0.2-5.4,0.2-7.6
		V1.7c0-0.9,0.5-1.4,1.5-1.4h3.9c2.8,0,4,1.2,4,3c0,1.2-0.5,2.3-1.9,2.8c0.5,0.2,0.7,0.7,0.9,1.1c0.3,1,0.6,1.7,1.2,2.5
		c0.1,0.2,0.2,0.3,0.2,0.5c0,0.6-0.9,1.1-1.7,1.1c-0.4,0-0.9-0.1-1.1-0.6c-0.5-1.1-0.9-2.1-1.1-3.2c-0.1-0.6-0.6-0.9-1.1-0.9H39.8z
		 M39.5,2.2C39.5,2.2,39.5,2.2,39.5,2.2c-0.1,0.9-0.1,1.6,0,2.5h3.3c1.4,0,2-0.5,2-1.4c0-0.9-0.7-1.2-2-1.2H39.5z"/>
	<path d="M51.4,11.2c-1,0-1.5-0.5-1.5-1.5v-8c0-0.9,0.5-1.4,1.5-1.4h5.9c0.6,0,0.9,0.5,0.9,0.9c0,0.5-0.3,0.9-0.9,0.9H52
		c0,0-0.1,0-0.1,0.1v1.9h5c0.6,0,0.9,0.5,0.9,0.9c0,0.5-0.3,0.9-0.9,0.9h-5v2.3c0,0.2,0,0.3,0.2,0.3h5.3c0.6,0,0.9,0.7,0.9,1.3
		s-0.3,1.3-0.9,1.3H51.4z"/>
</g>
</svg>
