<svg width="32" height="32" viewBox="0 0 32 32" fill="none" xmlns="http://www.w3.org/2000/svg"><circle cx="16" cy="16" r="16" fill="#1DA1F2"/><path d="M12.702 24.112c6.708 0 10.378-5.558 10.378-10.378 0-.158 0-.315-.01-.471a7.42 7.42 0 001.819-1.888 7.278 7.278 0 01-2.095.574 3.66 3.66 0 001.604-2.018 7.31 7.31 0 01-2.317.886 3.651 3.651 0 00-6.215 3.326 10.354 10.354 0 01-7.518-3.81 3.65 3.65 0 001.13 4.868 3.62 3.62 0 01-1.656-.456v.046a3.649 3.649 0 002.926 3.576c-.537.146-1.1.167-1.647.062a3.651 3.651 0 003.408 2.533 7.319 7.319 0 01-5.398 1.512 10.326 10.326 0 005.59 1.636" fill="#fff"/></svg>