<!-- Generator: Adobe Illustrator 25.2.1, SVG Export Plug-In  -->
<svg version="1.1" xmlns="http://www.w3.org/2000/svg" xmlns:xlink="http://www.w3.org/1999/xlink" x="0px" y="0px" width="107.5px"
	 height="19.8px" viewBox="0 0 107.5 19.8" style="overflow:visible;enable-background:new 0 0 107.5 19.8;" xml:space="preserve">
<style type="text/css">
	.st0{fill:#111111;}
</style>
<defs>
</defs>
<g>
	<path class="st0" d="M11.4,6L9.1,17.6c-0.3,1.3-1.4,1.9-2.6,1.9c-1.3,0-2.6-0.6-3-1.9C2,11.3,1,7.1,0,2c0-0.1,0-0.2,0-0.3
		c0-0.9,0.9-1.4,1.8-1.4c0.7,0,1.4,0.3,1.6,1c1.1,4.3,1.8,7.4,3,11L9,2.4c0.3-1,1.3-1.4,2.3-1.4s2.1,0.5,2.4,1.4l2.8,9.9
		c1.1-3.2,2-6.6,3-11c0.2-0.7,0.8-1,1.6-1c0.9,0,1.8,0.5,1.8,1.4c0,0.1,0,0.2,0,0.3c-1.2,6-2,9.4-3.6,15.7c-0.3,1.2-1.7,1.9-3,1.9
		c-1.2,0-2.3-0.5-2.6-1.9L11.4,6z"/>
	<path class="st0" d="M26.7,9.9c0-5.8,4.2-9.9,9.6-9.9c5.4,0,9.6,4.2,9.6,9.9c0,5.8-4.2,9.9-9.6,9.9C30.9,19.8,26.7,15.7,26.7,9.9z
		 M36.2,3.3c-3.4,0-5.9,2.7-5.9,6s2.5,5.8,5.9,5.8s5.9-2.5,5.9-5.8S39.6,3.3,36.2,3.3z"/>
	<path class="st0" d="M55.3,11.4c0.1,1.9,0.1,3.7,0.6,6.2c0,0.1,0,0.2,0,0.3c0,1.1-1.3,1.6-2.6,1.6c-1.2,0-2.3-0.5-2.3-1.6v-0.1
		c0.2-4.9,0.3-9.3,0.3-13.1V2.9c0-1.5,0.9-2.3,2.6-2.3h6.7c4.8,0,6.9,2.1,6.9,5.2c0,2.1-0.9,4-3.3,4.8c0.8,0.3,1.3,1.2,1.5,1.8
		c0.5,1.6,1,2.8,2.1,4.3c0.2,0.3,0.3,0.5,0.3,0.8c0,1.1-1.5,1.9-2.9,1.9c-0.8,0-1.5-0.2-1.8-1c-0.8-1.8-1.6-3.6-1.9-5.5
		c-0.2-1-1-1.6-1.8-1.6H55.3z M54.9,3.8c0,0-0.1,0-0.1,0.1c0,1.4,0,2.6,0.1,4.3h5.7c2.4,0,3.5-0.9,3.5-2.4s-1.2-2-3.5-2H54.9z"/>
	<path class="st0" d="M77,17.7c0,1.2-1.1,1.8-2.2,1.8s-2.3-0.6-2.3-1.8v-0.1c0.4-7,0.4-11.8,0.4-16.1c0-0.8,0.8-1.2,1.7-1.2
		s1.7,0.4,1.7,1.2c0,1.6,0,3,0,4.4l8.4-5.3c0.3-0.2,0.6-0.3,0.9-0.3c0.9,0,1.8,0.8,1.8,1.7c0,0.4-0.2,0.9-0.7,1.2L77.9,9
		c2.2,1.8,5.8,4,9.6,6.3c0.6,0.4,0.9,1,0.9,1.6c0,1.3-1.2,2.7-2.6,2.7c-0.4,0-0.9-0.1-1.3-0.4c-3.5-2.5-6.2-4.6-7.9-6.5
		c0.1,1.5,0.2,3.1,0.3,4.9V17.7z"/>
	<path class="st0" d="M99.6,19.8c-5.4,0-8.1-2.8-8.1-7.3c0-1.2,0.9-1.7,1.7-1.7c0.7,0,1.4,0.4,1.6,1.2c0.4,2.1,2.2,3.2,4.8,3.2
		c1.9,0,2.9-0.5,3.5-1.1c0.3-0.3,0.4-0.8,0.4-1.2c0-0.4-0.1-0.7-0.3-0.9c-0.4-0.6-0.9-1-2.2-1.3c-1.8-0.4-4.2-0.6-6-1.3
		c-2-0.8-2.9-2.5-2.9-4.1c0-1.3,0.5-2.5,1.5-3.4C95,0.7,96.8,0,99.4,0c4.1,0,6.8,1.6,7.3,4.8c0,0.1,0,0.1,0,0.2c0,0.8-1,1.4-1.9,1.4
		c-0.7,0-1.3-0.3-1.5-1.1c-0.3-1.4-1.8-2.2-3.8-2.2c-1.7,0-2.7,0.4-3.2,0.9c-0.3,0.3-0.5,0.7-0.5,1c0,0.4,0.3,0.8,1,1.2
		c1,0.5,3.3,0.7,5.4,1.2c2.3,0.5,3.7,1.3,4.6,2.6c0.6,0.9,0.9,2.1,0.9,3.4c0,1.4-0.4,2.9-1.2,4C105.1,18.9,102.8,19.8,99.6,19.8z"/>
</g>
</svg>
