<!-- Generator: Adobe Illustrator 25.2.1, SVG Export Plug-In  -->
<svg version="1.1" xmlns="http://www.w3.org/2000/svg" xmlns:xlink="http://www.w3.org/1999/xlink" x="0px" y="0px" width="184.4px"
	 height="19.8px" viewBox="0 0 184.4 19.8" style="overflow:visible;enable-background:new 0 0 184.4 19.8;" xml:space="preserve">
<style type="text/css">
	.st0{fill:#111111;}
</style>
<defs>
</defs>
<g>
	<path class="st0" d="M9.2,19.8C3.7,19.8,0,15.9,0,9.5C0,4.5,3.5,0,9.2,0c3.4,0,6.4,1.6,8,4.6c0.1,0.2,0.2,0.5,0.2,0.6
		c0,0.9-1,1.6-1.9,1.6c-0.5,0-1-0.2-1.3-0.7c-1.1-1.8-2.9-2.9-4.9-2.9C5.9,3.2,3.5,6,3.5,9.1c0,3.6,2.4,6,5.7,6c2.2,0,4.3-1,5.2-3
		c0.2-0.5,0.7-0.7,1.3-0.7c1,0,2.2,0.8,2.2,1.9c0,0.2,0,0.4-0.1,0.6C16.6,17.6,13.6,19.8,9.2,19.8z"/>
	<path class="st0" d="M39.3,17.7c0,1.2-1.3,1.8-2.5,1.8s-2.5-0.6-2.5-1.8v-0.1c0.2-3,0.5-5.2,0.5-7.2h-7.8c0,2,0.3,4.2,0.5,7.2v0.2
		c0,1.2-1.3,1.8-2.5,1.8c-1.3,0-2.5-0.6-2.5-1.8v-0.2c0.6-7,0.9-10.6,0.9-16.1c0-0.8,0.9-1.2,1.7-1.2s1.8,0.4,1.8,1.2v3
		c0,0.9,0,1.8,0,2.7h8.1c0-1.1,0-2.1,0-3.3V1.4c0-0.8,0.9-1.2,1.8-1.2c0.9,0,1.7,0.4,1.7,1.2c0,5.7,0.3,9,0.9,16.1V17.7z"/>
	<path class="st0" d="M49,13.5c-0.5,1.5-0.9,3.1-1.4,4.8c-0.2,0.9-1.1,1.2-2,1.2c-1.3,0-2.7-0.7-2.7-1.8c0-0.2,0-0.4,0.1-0.6l7-15.3
		c0.5-1,1.4-1.5,2.4-1.5s2,0.5,2.4,1.5l7,15.3c0.1,0.2,0.1,0.4,0.1,0.6c0,1.1-1.4,1.8-2.7,1.8c-0.9,0-1.8-0.3-2-1.2
		c-0.5-1.7-1-3.3-1.4-4.8H49z M54.8,10.3c-0.8-2.2-1.6-4.2-2.4-6c-0.8,1.8-1.6,3.7-2.4,6H54.8z"/>
	<path class="st0" d="M70,11.4c0.1,1.9,0.1,3.7,0.6,6.2c0,0.1,0,0.2,0,0.3c0,1.1-1.3,1.6-2.6,1.6c-1.2,0-2.3-0.5-2.3-1.6v-0.1
		C66,12.9,66,8.6,66,4.8V2.9c0-1.5,0.9-2.3,2.6-2.3h6.7c4.8,0,6.9,2.1,6.9,5.2c0,2.1-0.9,4-3.3,4.8c0.8,0.3,1.3,1.2,1.5,1.8
		c0.5,1.6,1,2.8,2.1,4.3c0.2,0.3,0.3,0.5,0.3,0.8c0,1.1-1.5,1.9-2.9,1.9c-0.8,0-1.5-0.2-1.8-1c-0.8-1.8-1.6-3.6-1.9-5.5
		c-0.2-1-1-1.6-1.8-1.6H70z M69.6,3.8c0,0-0.1,0-0.1,0.1c0,1.4,0,2.6,0.1,4.3h5.7c2.4,0,3.5-0.9,3.5-2.4s-1.2-2-3.5-2H69.6z"/>
	<path class="st0" d="M91.4,13.5c-0.5,1.5-0.9,3.1-1.4,4.8c-0.2,0.9-1.1,1.2-2,1.2c-1.3,0-2.7-0.7-2.7-1.8c0-0.2,0-0.4,0.1-0.6
		l7-15.3c0.5-1,1.4-1.5,2.4-1.5s2,0.5,2.4,1.5l7,15.3c0.1,0.2,0.1,0.4,0.1,0.6c0,1.1-1.4,1.8-2.7,1.8c-0.9,0-1.8-0.3-2-1.2
		c-0.5-1.7-1-3.3-1.4-4.8H91.4z M97.3,10.3c-0.8-2.2-1.6-4.2-2.4-6c-0.8,1.8-1.6,3.7-2.4,6H97.3z"/>
	<path class="st0" d="M116.7,19.8c-5.5,0-9.2-3.8-9.2-10.3c0-4.9,3.5-9.5,9.2-9.5c3.4,0,6.4,1.6,8,4.6c0.1,0.2,0.2,0.5,0.2,0.6
		c0,0.9-1,1.6-1.9,1.6c-0.5,0-1-0.2-1.3-0.7c-1.1-1.8-2.9-2.9-4.9-2.9c-3.3,0-5.7,2.8-5.7,5.9c0,3.6,2.4,6,5.7,6c2.2,0,4.3-1,5.2-3
		c0.2-0.5,0.7-0.7,1.3-0.7c1,0,2.2,0.8,2.2,1.9c0,0.2,0,0.4-0.1,0.6C124.1,17.6,121.1,19.8,116.7,19.8z"/>
	<path class="st0" d="M138.8,17.7c0,1.2-1.3,1.8-2.6,1.8c-1.3,0-2.6-0.6-2.6-1.8v-0.2c0.7-6.5,0.8-9.3,0.8-13.7h-4.6
		c-0.9,0-1.3-0.8-1.3-1.6c0-0.8,0.4-1.6,1.3-1.6h12.6c0.9,0,1.3,0.8,1.3,1.6c0,0.8-0.5,1.6-1.3,1.6h-4.5c0,4.4,0.2,7.2,0.9,13.7
		V17.7z"/>
	<path class="st0" d="M150.6,19.3c-1.7,0-2.6-0.9-2.6-2.6V2.9c0-1.6,0.9-2.4,2.6-2.4h10.2c1.1,0,1.6,0.8,1.6,1.6
		c0,0.8-0.5,1.6-1.6,1.6h-9.2c-0.1,0-0.1,0.1-0.1,0.1v3.3h8.6c1,0,1.6,0.8,1.6,1.6c0,0.8-0.5,1.6-1.5,1.6h-8.6v3.9
		c0,0.3,0.1,0.4,0.4,0.4h9c1,0,1.6,1.1,1.6,2.3c0,1.1-0.5,2.3-1.6,2.3H150.6z"/>
	<path class="st0" d="M171.6,11.4c0.1,1.9,0.1,3.7,0.6,6.2c0,0.1,0,0.2,0,0.3c0,1.1-1.3,1.6-2.6,1.6c-1.2,0-2.3-0.5-2.3-1.6v-0.1
		c0.2-4.9,0.3-9.3,0.3-13.1V2.9c0-1.5,0.9-2.3,2.6-2.3h6.7c4.8,0,6.9,2.1,6.9,5.2c0,2.1-0.9,4-3.3,4.8c0.8,0.3,1.3,1.2,1.5,1.8
		c0.5,1.6,1,2.8,2.1,4.3c0.2,0.3,0.3,0.5,0.3,0.8c0,1.1-1.5,1.9-2.9,1.9c-0.8,0-1.5-0.2-1.8-1c-0.8-1.8-1.6-3.6-1.9-5.5
		c-0.2-1-1-1.6-1.8-1.6H171.6z M171.2,3.8c0,0-0.1,0-0.1,0.1c0,1.4,0,2.6,0.1,4.3h5.7c2.4,0,3.5-0.9,3.5-2.4s-1.2-2-3.5-2H171.2z"/>
</g>
</svg>
