<svg version="1.0" xmlns="http://www.w3.org/2000/svg" viewBox="0 0 168 55" preserveAspectRatio="xMidYMid meet">
  <g transform="translate(0,55) scale(0.1,-0.1)" fill="#000000" stroke="none">
    <path d="M527 384 c-4 -4 -7 -45 -7 -91 0 -75 2 -84 18 -81 11 2 19 15 22 37 6 41 30 55 30 18 0 -36 10 -57 26 -57 10 0 14 13 14 43 0 53 -19 82 -48 75 -17 -5 -21 -1 -24 25 -3 30 -17 44 -31 31z M115 371 c-9 -16 -35 -119 -35 -142 0 -32 34 -19 41 16 l6 30 13 -32 c15 -41 38 -42 51 -3 13 36 29 39 29 6 0 -24 25 -54 37 -43 6 7 -17 151 -28 169 -9 15 -39 3 -39 -16 0 -8 -5 -27 -11 -43 l-11 -28 -12 44 c-11 44 -28 62 -41 42z M663 358 c2 -7 10 -13 17 -13 7 0 15 6 18 13 2 7 -5 12 -18 12 -13 0 -20 -5 -17 -12z M903 358 c2 -7 10 -13 17 -13 7 0 15 6 18 13 2 7 -5 12 -18 12 -13 0 -20 -5 -17 -12z M294 304 c-20 -19 -24 -31 -19 -52 9 -35 21 -42 72 -42 l42 0 -6 53 c-9 74 -42 89 -89 41z m55 -51 c1 -7 -8 -13 -19 -13 -23 0 -27 29 -8 48 10 10 14 9 20 -5 3 -10 7 -24 7 -30z M430 323 c-36 -14 -33 -45 9 -68 l26 -15 -30 2 c-21 2 -30 -1 -30 -12 0 -21 68 -26 84 -7 15 19 5 44 -22 53 -21 7 -21 8 3 14 14 3 25 12 25 20 0 16 -39 23 -65 13z M660 271 c0 -48 3 -61 15 -61 13 0 15 11 13 57 -4 81 -28 85 -28 4z M720 268 c0 -45 3 -58 15 -58 10 0 15 10 15 29 0 16 7 34 15 41 13 11 15 6 15 -35 0 -39 3 -46 18 -43 14 3 16 12 14 47 -5 57 21 52 28 -5 3 -26 10 -39 20 -39 12 0 14 11 12 50 -2 28 -8 54 -13 60 -5 5 -39 10 -74 11 l-65 1 0 -59z M907 323 c-4 -3 -7 -30 -7 -60 0 -40 4 -53 15 -53 12 0 15 13 15 60 0 55 -6 70 -23 53z M960 323 c0 -5 7 -17 15 -27 13 -18 13 -22 -7 -43 -16 -18 -19 -26 -10 -35 9 -9 16 -7 32 7 19 17 21 17 38 2 37 -34 58 -11 25 26 -17 19 -17 20 5 34 23 16 30 43 10 43 -6 0 -20 -7 -30 -17 -17 -15 -19 -15 -36 0 -19 18 -42 23 -42 10z M1210 308 c-23 -25 -26 -70 -6 -87 22 -18 80 -10 84 11 3 15 -2 17 -26 12 -32 -7 -46 5 -36 31 5 11 15 15 31 12 30 -6 41 12 18 30 -26 18 -41 16 -65 -9z M1332 314 c-25 -17 -31 -71 -10 -92 20 -20 65 -14 82 10 21 30 20 54 -4 78 -24 24 -38 25 -68 4z m48 -43 c0 -24 -18 -37 -31 -24 -13 13 -1 43 17 43 8 0 14 -9 14 -19z M1433 315 c-2 -7 -3 -32 -1 -56 2 -32 8 -45 21 -47 13 -3 17 3 17 25 0 53 18 60 25 10 10 -64 35 -65 35 -2 0 57 16 58 27 3 12 -61 39 -59 34 2 -5 72 -11 77 -87 77 -43 0 -67 -4 -71 -12z M1117 224 c-9 -10 2 -24 19 -24 8 0 14 7 14 15 0 15 -21 21 -33 9z"/>
  </g>
</svg>
